<svg id="visual" viewBox="0 0 3840 200" width="3840" height="200" xmlns="http://www.w3.org/2000/svg" xmlns:xlink="http://www.w3.org/1999/xlink" version="1.1"><rect x="0" y="0" width="3840" height="200" fill="#ffffff"></rect><path d="M0 177L20.7 151.8C41.3 126.7 82.7 76.3 124 79C165.3 81.7 206.7 137.3 248 149C289.3 160.7 330.7 128.3 371.8 100C413 71.7 454 47.3 495.2 57.3C536.3 67.3 577.7 111.7 619 111.3C660.3 111 701.7 66 743 72.2C784.3 78.3 825.7 135.7 867 156.3C908.3 177 949.7 161 991 137.2C1032.3 113.3 1073.7 81.7 1115 60.8C1156.3 40 1197.7 30 1239 26.7C1280.3 23.3 1321.7 26.7 1362.8 28.3C1404 30 1445 30 1486.2 27C1527.3 24 1568.7 18 1610 31.5C1651.3 45 1692.7 78 1734 98.3C1775.3 118.7 1816.7 126.3 1858 140.3C1899.3 154.3 1940.7 174.7 1982 156.5C2023.3 138.3 2064.7 81.7 2106 63.8C2147.3 46 2188.7 67 2230 74.8C2271.3 82.7 2312.7 77.3 2353.8 83.3C2395 89.3 2436 106.7 2477.2 101.2C2518.3 95.7 2559.7 67.3 2601 51.8C2642.3 36.3 2683.7 33.7 2725 29C2766.3 24.3 2807.7 17.7 2849 20C2890.3 22.3 2931.7 33.7 2973 64.3C3014.3 95 3055.7 145 3097 156.3C3138.3 167.7 3179.7 140.3 3221 122.2C3262.3 104 3303.7 95 3344.8 92C3386 89 3427 92 3468.2 94.5C3509.3 97 3550.7 99 3592 98.3C3633.3 97.7 3674.7 94.3 3716 82.3C3757.3 70.3 3798.7 49.7 3819.3 39.3L3840 29L3840 0L3819.3 0C3798.7 0 3757.3 0 3716 0C3674.7 0 3633.3 0 3592 0C3550.7 0 3509.3 0 3468.2 0C3427 0 3386 0 3344.8 0C3303.7 0 3262.3 0 3221 0C3179.7 0 3138.3 0 3097 0C3055.7 0 3014.3 0 2973 0C2931.7 0 2890.3 0 2849 0C2807.7 0 2766.3 0 2725 0C2683.7 0 2642.3 0 2601 0C2559.7 0 2518.3 0 2477.2 0C2436 0 2395 0 2353.8 0C2312.7 0 2271.3 0 2230 0C2188.7 0 2147.3 0 2106 0C2064.7 0 2023.3 0 1982 0C1940.7 0 1899.3 0 1858 0C1816.7 0 1775.3 0 1734 0C1692.7 0 1651.3 0 1610 0C1568.7 0 1527.3 0 1486.2 0C1445 0 1404 0 1362.8 0C1321.7 0 1280.3 0 1239 0C1197.7 0 1156.3 0 1115 0C1073.7 0 1032.3 0 991 0C949.7 0 908.3 0 867 0C825.7 0 784.3 0 743 0C701.7 0 660.3 0 619 0C577.7 0 536.3 0 495.2 0C454 0 413 0 371.8 0C330.7 0 289.3 0 248 0C206.7 0 165.3 0 124 0C82.7 0 41.3 0 20.7 0L0 0Z" fill="#000000" stroke-linecap="round" stroke-linejoin="miter"></path></svg>